<svg width="16" height="12" viewBox="0 0 16 12" fill="none" xmlns="http://www.w3.org/2000/svg">
<path fill-rule="evenodd" clip-rule="evenodd" d="M8.33369 2.60733C10.5496 2.60743 12.6807 3.45886 14.2867 4.98566C14.4076 5.10354 14.6009 5.10205 14.72 4.98233L15.876 3.81566C15.9363 3.75494 15.97 3.67269 15.9695 3.58711C15.969 3.50153 15.9344 3.41968 15.8734 3.35966C11.6583 -0.679885 5.00845 -0.679885 0.793355 3.35966C0.732296 3.41963 0.697653 3.50146 0.697089 3.58704C0.696526 3.67262 0.730091 3.7549 0.790355 3.81566L1.94669 4.98233C2.06572 5.10223 2.25916 5.10372 2.38002 4.98566C3.98617 3.45876 6.11758 2.60732 8.33369 2.60733ZM8.33369 6.403C9.55118 6.40292 10.7252 6.85545 11.6277 7.67266C11.7498 7.78864 11.942 7.78613 12.061 7.667L13.2157 6.50033C13.2765 6.43913 13.3102 6.35612 13.3094 6.26985C13.3085 6.18359 13.2731 6.10127 13.211 6.04133C10.4628 3.48495 6.20689 3.48495 3.45869 6.04133C3.39661 6.10127 3.36119 6.18363 3.36038 6.26992C3.35956 6.35621 3.39342 6.43922 3.45436 6.50033L4.60869 7.667C4.72768 7.78613 4.91996 7.78864 5.04202 7.67266C5.94389 6.85599 7.117 6.4035 8.33369 6.403ZM10.6467 8.95681C10.6484 9.04332 10.6144 9.12672 10.5527 9.18733L8.55536 11.203C8.4968 11.2622 8.41698 11.2956 8.33369 11.2956C8.2504 11.2956 8.17057 11.2622 8.11202 11.203L6.11436 9.18733C6.05264 9.12668 6.0187 9.04325 6.02052 8.95674C6.02236 8.87024 6.0598 8.78832 6.12402 8.73033C7.39959 7.65145 9.26778 7.65145 10.5434 8.73033C10.6075 8.78836 10.6449 8.87031 10.6467 8.95681Z" fill="black"/>
</svg>
