<svg width="18" height="12" viewBox="0 0 18 12" fill="none" xmlns="http://www.w3.org/2000/svg">
<path fill-rule="evenodd" clip-rule="evenodd" d="M16.67 0.665939H15.67C15.1177 0.665939 14.67 1.11365 14.67 1.66594V10.3326C14.67 10.8849 15.1177 11.3326 15.67 11.3326H16.67C17.2223 11.3326 17.67 10.8849 17.67 10.3326V1.66594C17.67 1.11365 17.2223 0.665939 16.67 0.665939ZM11.0033 2.99927H12.0033C12.5556 2.99927 13.0033 3.44699 13.0033 3.99927V10.3326C13.0033 10.8849 12.5556 11.3326 12.0033 11.3326H11.0033C10.4511 11.3326 10.0033 10.8849 10.0033 10.3326V3.99927C10.0033 3.44699 10.4511 2.99927 11.0033 2.99927ZM7.33668 5.33261H6.33668C5.7844 5.33261 5.33668 5.78032 5.33668 6.33261V10.3326C5.33668 10.8849 5.7844 11.3326 6.33668 11.3326H7.33668C7.88896 11.3326 8.33668 10.8849 8.33668 10.3326V6.33261C8.33668 5.78032 7.88896 5.33261 7.33668 5.33261ZM2.67001 7.33261H1.67001C1.11773 7.33261 0.670013 7.78032 0.670013 8.33261V10.3326C0.670013 10.8849 1.11773 11.3326 1.67001 11.3326H2.67001C3.2223 11.3326 3.67001 10.8849 3.67001 10.3326V8.33261C3.67001 7.78032 3.2223 7.33261 2.67001 7.33261Z" fill="black"/>
</svg>
