<svg width="25" height="12" viewBox="0 0 25 12" fill="none" xmlns="http://www.w3.org/2000/svg">
<path opacity="0.35" d="M2.66718 0.833374H19.3332C20.5298 0.833374 21.5002 1.80375 21.5002 3.00037V9.00037C21.5 10.1968 20.5297 11.1664 19.3332 11.1664H2.66718C1.47067 11.1664 0.500359 10.1968 0.500183 9.00037V3.00037C0.500183 1.80375 1.47056 0.833374 2.66718 0.833374Z" stroke="white"/>
<path opacity="0.4" d="M23.0002 4.00003V8.00003C23.8049 7.66125 24.3282 6.87316 24.3282 6.00003C24.3282 5.1269 23.8049 4.33881 23.0002 4.00003" fill="white"/>
<path d="M2.00018 3.43337C2.00018 2.82586 2.49267 2.33337 3.10018 2.33337H18.9002C19.5077 2.33337 20.0002 2.82586 20.0002 3.43337V8.56671C20.0002 9.17422 19.5077 9.66671 18.9002 9.66671H3.10018C2.49267 9.66671 2.00018 9.17422 2.00018 8.56671V3.43337Z" fill="white"/>
</svg>
