<svg width="25" height="12" viewBox="0 0 25 12" fill="none" xmlns="http://www.w3.org/2000/svg">
<path opacity="0.35" d="M2.6702 0.832687H19.3362C20.5328 0.832687 21.5032 1.80306 21.5032 2.99968V8.99968C21.503 10.1961 20.5327 11.1657 19.3362 11.1657H2.6702C1.47369 11.1657 0.503381 10.1961 0.503204 8.99968V2.99968L0.513947 2.778C0.6248 1.68534 1.54829 0.832687 2.6702 0.832687Z" stroke="black"/>
<path opacity="0.4" d="M23.0032 3.99935V7.99935C23.8079 7.66057 24.3312 6.87248 24.3312 5.99935C24.3312 5.12622 23.8079 4.33813 23.0032 3.99935Z" fill="black"/>
<path d="M2.0032 3.43269C2.0032 2.82517 2.49569 2.33269 3.1032 2.33269H18.9032C19.5107 2.33269 20.0032 2.82517 20.0032 3.43269V8.56602C20.0032 9.17353 19.5107 9.66602 18.9032 9.66602H3.10321C2.49569 9.66602 2.0032 9.17353 2.0032 8.56602V3.43269Z" fill="black"/>
</svg>
